<svg width="86" height="41" viewBox="0 0 86 41" fill="none" xmlns="http://www.w3.org/2000/svg">
<g filter="url(#filter0_d)">
<path d="M2.73828 19V9.0332H2.87891L3.93359 10.7383V19H2.73828ZM2.73828 7.45117V6.69531H3.79297L10.5605 17.5059V19H9.96289L2.73828 7.45117ZM9.36523 14.1484V6.69531H10.5605V15.8887H10.4199L9.36523 14.1484Z" fill="black"/>
<path d="M2.73828 19H2.53828V19.2H2.73828V19ZM2.73828 9.0332V8.8332H2.53828V9.0332H2.73828ZM2.87891 9.0332L3.049 8.92799L2.99036 8.8332H2.87891V9.0332ZM3.93359 10.7383H4.13359V10.6814L4.10368 10.6331L3.93359 10.7383ZM3.93359 19V19.2H4.13359V19H3.93359ZM2.73828 7.45117H2.53828V7.50858L2.56873 7.55724L2.73828 7.45117ZM2.73828 6.69531V6.49531H2.53828V6.69531H2.73828ZM3.79297 6.69531L3.96249 6.58919L3.90372 6.49531H3.79297V6.69531ZM10.5605 17.5059H10.7605V17.4484L10.7301 17.3997L10.5605 17.5059ZM10.5605 19V19.2H10.7605V19H10.5605ZM9.96289 19L9.79333 19.1061L9.85209 19.2H9.96289V19ZM9.36523 14.1484H9.16523V14.2043L9.19419 14.2521L9.36523 14.1484ZM9.36523 6.69531V6.49531H9.16523V6.69531H9.36523ZM10.5605 6.69531H10.7605V6.49531H10.5605V6.69531ZM10.5605 15.8887V16.0887H10.7605V15.8887H10.5605ZM10.4199 15.8887L10.2489 15.9923L10.3073 16.0887H10.4199V15.8887ZM2.93828 19V9.0332H2.53828V19H2.93828ZM2.73828 9.2332H2.87891V8.8332H2.73828V9.2332ZM2.70882 9.13841L3.7635 10.8435L4.10368 10.6331L3.049 8.92799L2.70882 9.13841ZM3.73359 10.7383V19H4.13359V10.7383H3.73359ZM3.93359 18.8H2.73828V19.2H3.93359V18.8ZM2.93828 7.45117V6.69531H2.53828V7.45117H2.93828ZM2.73828 6.89531H3.79297V6.49531H2.73828V6.89531ZM3.62345 6.80144L10.391 17.612L10.7301 17.3997L3.96249 6.58919L3.62345 6.80144ZM10.3605 17.5059V19H10.7605V17.5059H10.3605ZM10.5605 18.8H9.96289V19.2H10.5605V18.8ZM10.1324 18.8939L2.90784 7.3451L2.56873 7.55724L9.79333 19.1061L10.1324 18.8939ZM9.56523 14.1484V6.69531H9.16523V14.1484H9.56523ZM9.36523 6.89531H10.5605V6.49531H9.36523V6.89531ZM10.3605 6.69531V15.8887H10.7605V6.69531H10.3605ZM10.5605 15.6887H10.4199V16.0887H10.5605V15.6887ZM10.591 15.785L9.53627 14.0448L9.19419 14.2521L10.2489 15.9923L10.591 15.785Z" fill="#3F227C"/>
</g>
<g filter="url(#filter1_d)">
<path d="M2.60547 36L5.22266 24.3984H5.55469L6.02344 26.5664L3.91406 36H2.60547ZM5.35938 33.6367L5.63281 32.3477H8.23047L6.02344 22.3477H7.35156L10.3984 36H9.07031L8.5625 33.6367H5.35938Z" fill="black"/>
<path d="M2.60547 36L2.41037 35.956L2.35533 36.2H2.60547V36ZM5.22266 24.3984V24.1984H5.06275L5.02756 24.3544L5.22266 24.3984ZM5.55469 24.3984L5.75017 24.3562L5.71607 24.1984H5.55469V24.3984ZM6.02344 26.5664L6.21862 26.61L6.22822 26.5671L6.21892 26.5241L6.02344 26.5664ZM3.91406 36V36.2H4.07428L4.10924 36.0436L3.91406 36ZM5.35938 33.6367L5.16373 33.5952L5.1125 33.8367H5.35938V33.6367ZM5.63281 32.3477V32.1477H5.47079L5.43717 32.3062L5.63281 32.3477ZM8.23047 32.3477V32.5477H8.47942L8.42577 32.3046L8.23047 32.3477ZM6.02344 22.3477V22.1477H5.77448L5.82814 22.3908L6.02344 22.3477ZM7.35156 22.3477L7.54676 22.3041L7.51185 22.1477H7.35156V22.3477ZM10.3984 36V36.2H10.648L10.5936 35.9564L10.3984 36ZM9.07031 36L8.87478 36.042L8.90872 36.2H9.07031V36ZM8.5625 33.6367L8.75804 33.5947L8.72409 33.4367H8.5625V33.6367ZM2.80057 36.044L5.41775 24.4424L5.02756 24.3544L2.41037 35.956L2.80057 36.044ZM5.22266 24.5984H5.55469V24.1984H5.22266V24.5984ZM5.3592 24.4407L5.82795 26.6087L6.21892 26.5241L5.75017 24.3562L5.3592 24.4407ZM5.82826 26.5228L3.71888 35.9564L4.10924 36.0436L6.21862 26.61L5.82826 26.5228ZM3.91406 35.8H2.60547V36.2H3.91406V35.8ZM5.55502 33.6782L5.82846 32.3892L5.43717 32.3062L5.16373 33.5952L5.55502 33.6782ZM5.63281 32.5477H8.23047V32.1477H5.63281V32.5477ZM8.42577 32.3046L6.21874 22.3046L5.82814 22.3908L8.03517 32.3908L8.42577 32.3046ZM6.02344 22.5477H7.35156V22.1477H6.02344V22.5477ZM7.15636 22.3912L10.2032 36.0436L10.5936 35.9564L7.54676 22.3041L7.15636 22.3912ZM10.3984 35.8H9.07031V36.2H10.3984V35.8ZM9.26585 35.958L8.75804 33.5947L8.36696 33.6787L8.87478 36.042L9.26585 35.958ZM8.5625 33.4367H5.35938V33.8367H8.5625V33.4367Z" fill="#3F227C"/>
</g>
<path d="M23.7636 26.23V27H22.1536L19.5216 23.052H17.0996V25.796L18.1356 26.23V27H14.8596V26.23L15.8956 25.796V18.684L14.8596 18.278V17.48H20.4456C21.3509 17.48 22.0369 17.718 22.5036 18.194C22.9702 18.6607 23.2036 19.3513 23.2036 20.266C23.2036 21.078 23.0076 21.7173 22.6156 22.184C22.2329 22.6413 21.6682 22.9167 20.9216 23.01L22.8116 25.81L23.7636 26.23ZM17.0996 22.044H20.1936C20.8189 22.044 21.2669 21.9087 21.5376 21.638C21.8082 21.358 21.9436 20.9007 21.9436 20.266C21.9436 19.6407 21.8129 19.188 21.5516 18.908C21.2996 18.628 20.8936 18.488 20.3336 18.488H17.0996V22.044ZM32.1011 18.278L31.0651 18.684V25.81L32.1011 26.23V27H28.8251V26.23L29.8611 25.81V18.684L28.8251 18.278V17.48H32.1011V18.278ZM47.3296 17.48V18.278L46.2936 18.684V27H44.8656L39.4756 18.978V25.81L40.5816 26.23V27H37.4176V26.23L38.4536 25.81V18.684L37.4176 18.278V17.48H39.8816L45.2576 25.488V18.684L44.1516 18.278V17.48H47.3296ZM61.7302 26.23V27H58.5102V26.23L59.4902 25.852L58.7342 23.794H54.6042L53.8342 25.866L54.8282 26.23V27H51.8462V26.23L52.8122 25.796L56.0042 17.368H57.5722L60.7642 25.782L61.7302 26.23ZM58.3702 22.8L56.6762 18.208L54.9682 22.8H58.3702Z" fill="black"/>
<g filter="url(#filter2_d)">
<path d="M67.2836 12V14.9799H76.7134C76.7134 14.9799 83 17.9956 83 21.9653C83 25.9351 76.7134 28.9508 76.7134 28.9508H67.2836V32" stroke="black" stroke-linecap="round"/>
<path d="M67.2836 12V14.9799H76.7134C76.7134 14.9799 83 17.9956 83 21.9653C83 25.9351 76.7134 28.9508 76.7134 28.9508H67.2836V32" stroke="#3F227C" stroke-linecap="round"/>
</g>
<defs>
<filter id="filter0_d" x="0.538284" y="4.4953" width="12.2223" height="16.7047" filterUnits="userSpaceOnUse" color-interpolation-filters="sRGB">
<feFlood flood-opacity="0" result="BackgroundImageFix"/>
<feColorMatrix in="SourceAlpha" type="matrix" values="0 0 0 0 0 0 0 0 0 0 0 0 0 0 0 0 0 0 127 0" result="hardAlpha"/>
<feOffset/>
<feGaussianBlur stdDeviation="1"/>
<feComposite in2="hardAlpha" operator="out"/>
<feColorMatrix type="matrix" values="0 0 0 0 0.247163 0 0 0 0 0.134062 0 0 0 0 0.4875 0 0 0 1 0"/>
<feBlend mode="normal" in2="BackgroundImageFix" result="effect1_dropShadow"/>
<feBlend mode="normal" in="SourceGraphic" in2="effect1_dropShadow" result="shape"/>
</filter>
<filter id="filter1_d" x="0.355331" y="20.1476" width="12.2927" height="18.0523" filterUnits="userSpaceOnUse" color-interpolation-filters="sRGB">
<feFlood flood-opacity="0" result="BackgroundImageFix"/>
<feColorMatrix in="SourceAlpha" type="matrix" values="0 0 0 0 0 0 0 0 0 0 0 0 0 0 0 0 0 0 127 0" result="hardAlpha"/>
<feOffset/>
<feGaussianBlur stdDeviation="1"/>
<feComposite in2="hardAlpha" operator="out"/>
<feColorMatrix type="matrix" values="0 0 0 0 0.247163 0 0 0 0 0.134062 0 0 0 0 0.4875 0 0 0 1 0"/>
<feBlend mode="normal" in2="BackgroundImageFix" result="effect1_dropShadow"/>
<feBlend mode="normal" in="SourceGraphic" in2="effect1_dropShadow" result="shape"/>
</filter>
<filter id="filter2_d" x="64.7836" y="9.5" width="20.7164" height="25" filterUnits="userSpaceOnUse" color-interpolation-filters="sRGB">
<feFlood flood-opacity="0" result="BackgroundImageFix"/>
<feColorMatrix in="SourceAlpha" type="matrix" values="0 0 0 0 0 0 0 0 0 0 0 0 0 0 0 0 0 0 127 0" result="hardAlpha"/>
<feOffset/>
<feGaussianBlur stdDeviation="1"/>
<feComposite in2="hardAlpha" operator="out"/>
<feColorMatrix type="matrix" values="0 0 0 0 0.247163 0 0 0 0 0.134062 0 0 0 0 0.4875 0 0 0 1 0"/>
<feBlend mode="normal" in2="BackgroundImageFix" result="effect1_dropShadow"/>
<feBlend mode="normal" in="SourceGraphic" in2="effect1_dropShadow" result="shape"/>
</filter>
</defs>
</svg>
